<?xml version="1.0" encoding="utf-8" standalone="no"?>
<!DOCTYPE svg PUBLIC "-//W3C//DTD SVG 1.1//EN"
  "http://www.w3.org/Graphics/SVG/1.1/DTD/svg11.dtd">
<!-- Created with matplotlib (https://matplotlib.org/) -->
<svg height="288pt" version="1.1" viewBox="0 0 432 288" width="432pt" xmlns="http://www.w3.org/2000/svg" xmlns:xlink="http://www.w3.org/1999/xlink">
 <defs>
  <style type="text/css">
*{stroke-linecap:butt;stroke-linejoin:round;}
  </style>
 </defs>
 <g id="figure_1">
  <g id="patch_1">
   <path d="M 0 288 
L 432 288 
L 432 0 
L 0 0 
z
" style="fill:#ffffff;"/>
  </g>
  <g id="axes_1">
   <g id="patch_2">
    <path d="M 62.93 233.08 
L 421.2 233.08 
L 421.2 31.29 
L 62.93 31.29 
z
" style="fill:#ffffff;"/>
   </g>
   <g id="matplotlib.axis_1">
    <g id="xtick_1">
     <g id="line2d_1">
      <defs>
       <path d="M 0 0 
L 0 3.5 
" id="m51f6a9e7b4" style="stroke:#262626;stroke-width:0.8;"/>
      </defs>
      <g>
       <use style="fill:#262626;stroke:#262626;stroke-width:0.8;" x="107.71375" xlink:href="#m51f6a9e7b4" y="233.08"/>
      </g>
     </g>
     <g id="text_1">
      <!-- NT -->
      <defs>
       <path d="M 7.625 0 
L 7.625 71.578125 
L 17.328125 71.578125 
L 54.9375 15.375 
L 54.9375 71.578125 
L 64.015625 71.578125 
L 64.015625 0 
L 54.296875 0 
L 16.703125 56.25 
L 16.703125 0 
z
" id="ArialMT-78"/>
       <path d="M 25.921875 0 
L 25.921875 63.140625 
L 2.34375 63.140625 
L 2.34375 71.578125 
L 59.078125 71.578125 
L 59.078125 63.140625 
L 35.40625 63.140625 
L 35.40625 0 
z
" id="ArialMT-84"/>
      </defs>
      <g style="fill:#262626;" transform="translate(110.815938 256.075625)rotate(-90)scale(0.12 -0.12)">
       <use xlink:href="#ArialMT-78"/>
       <use x="72.216797" xlink:href="#ArialMT-84"/>
      </g>
     </g>
    </g>
    <g id="xtick_2">
     <g id="line2d_2">
      <g>
       <use style="fill:#262626;stroke:#262626;stroke-width:0.8;" x="197.28125" xlink:href="#m51f6a9e7b4" y="233.08"/>
      </g>
     </g>
     <g id="text_2">
      <!-- WT -->
      <defs>
       <path d="M 20.21875 0 
L 1.21875 71.578125 
L 10.9375 71.578125 
L 21.828125 24.65625 
Q 23.578125 17.28125 24.859375 10.015625 
Q 27.59375 21.484375 28.078125 23.25 
L 41.703125 71.578125 
L 53.125 71.578125 
L 63.375 35.359375 
Q 67.234375 21.875 68.953125 10.015625 
Q 70.3125 16.796875 72.515625 25.59375 
L 83.734375 71.578125 
L 93.265625 71.578125 
L 73.640625 0 
L 64.5 0 
L 49.421875 54.546875 
Q 47.515625 61.375 47.171875 62.9375 
Q 46.046875 58.015625 45.0625 54.546875 
L 29.890625 0 
z
" id="ArialMT-87"/>
      </defs>
      <g style="fill:#262626;" transform="translate(200.383438 258.73625)rotate(-90)scale(0.12 -0.12)">
       <use xlink:href="#ArialMT-87"/>
       <use x="94.384766" xlink:href="#ArialMT-84"/>
      </g>
     </g>
    </g>
    <g id="xtick_3">
     <g id="line2d_3">
      <g>
       <use style="fill:#262626;stroke:#262626;stroke-width:0.8;" x="286.84875" xlink:href="#m51f6a9e7b4" y="233.08"/>
      </g>
     </g>
     <g id="text_3">
      <!-- RT -->
      <defs>
       <path d="M 7.859375 0 
L 7.859375 71.578125 
L 39.59375 71.578125 
Q 49.171875 71.578125 54.140625 69.640625 
Q 59.125 67.71875 62.109375 62.828125 
Q 65.09375 57.953125 65.09375 52.046875 
Q 65.09375 44.4375 60.15625 39.203125 
Q 55.21875 33.984375 44.921875 32.5625 
Q 48.6875 30.765625 50.640625 29 
Q 54.78125 25.203125 58.5 19.484375 
L 70.953125 0 
L 59.03125 0 
L 49.5625 14.890625 
Q 45.40625 21.34375 42.71875 24.75 
Q 40.046875 28.171875 37.921875 29.53125 
Q 35.796875 30.90625 33.59375 31.453125 
Q 31.984375 31.78125 28.328125 31.78125 
L 17.328125 31.78125 
L 17.328125 0 
z
M 17.328125 39.984375 
L 37.703125 39.984375 
Q 44.1875 39.984375 47.84375 41.328125 
Q 51.515625 42.671875 53.421875 45.625 
Q 55.328125 48.578125 55.328125 52.046875 
Q 55.328125 57.125 51.640625 60.390625 
Q 47.953125 63.671875 39.984375 63.671875 
L 17.328125 63.671875 
z
" id="ArialMT-82"/>
      </defs>
      <g style="fill:#262626;" transform="translate(289.950938 256.07375)rotate(-90)scale(0.12 -0.12)">
       <use xlink:href="#ArialMT-82"/>
       <use x="72.201172" xlink:href="#ArialMT-84"/>
      </g>
     </g>
    </g>
    <g id="xtick_4">
     <g id="line2d_4">
      <g>
       <use style="fill:#262626;stroke:#262626;stroke-width:0.8;" x="376.41625" xlink:href="#m51f6a9e7b4" y="233.08"/>
      </g>
     </g>
     <g id="text_4">
      <!-- DT -->
      <defs>
       <path d="M 7.71875 0 
L 7.71875 71.578125 
L 32.375 71.578125 
Q 40.71875 71.578125 45.125 70.5625 
Q 51.265625 69.140625 55.609375 65.4375 
Q 61.28125 60.640625 64.078125 53.1875 
Q 66.890625 45.75 66.890625 36.1875 
Q 66.890625 28.03125 64.984375 21.734375 
Q 63.09375 15.4375 60.109375 11.296875 
Q 57.125 7.171875 53.578125 4.796875 
Q 50.046875 2.4375 45.046875 1.21875 
Q 40.046875 0 33.546875 0 
z
M 17.1875 8.453125 
L 32.46875 8.453125 
Q 39.546875 8.453125 43.578125 9.765625 
Q 47.609375 11.078125 50 13.484375 
Q 53.375 16.84375 55.25 22.53125 
Q 57.125 28.21875 57.125 36.328125 
Q 57.125 47.5625 53.4375 53.59375 
Q 49.75 59.625 44.484375 61.671875 
Q 40.671875 63.140625 32.234375 63.140625 
L 17.1875 63.140625 
z
" id="ArialMT-68"/>
      </defs>
      <g style="fill:#262626;" transform="translate(379.518437 256.075625)rotate(-90)scale(0.12 -0.12)">
       <use xlink:href="#ArialMT-68"/>
       <use x="72.216797" xlink:href="#ArialMT-84"/>
      </g>
     </g>
    </g>
    <g id="text_5">
     <!-- Treatment -->
     <defs>
      <path d="M 6.5 0 
L 6.5 51.859375 
L 14.40625 51.859375 
L 14.40625 44 
Q 17.4375 49.515625 20 51.265625 
Q 22.5625 53.03125 25.640625 53.03125 
Q 30.078125 53.03125 34.671875 50.203125 
L 31.640625 42.046875 
Q 28.421875 43.953125 25.203125 43.953125 
Q 22.3125 43.953125 20.015625 42.21875 
Q 17.71875 40.484375 16.75 37.40625 
Q 15.28125 32.71875 15.28125 27.15625 
L 15.28125 0 
z
" id="ArialMT-114"/>
      <path d="M 42.09375 16.703125 
L 51.171875 15.578125 
Q 49.03125 7.625 43.21875 3.21875 
Q 37.40625 -1.171875 28.375 -1.171875 
Q 17 -1.171875 10.328125 5.828125 
Q 3.65625 12.84375 3.65625 25.484375 
Q 3.65625 38.578125 10.390625 45.796875 
Q 17.140625 53.03125 27.875 53.03125 
Q 38.28125 53.03125 44.875 45.953125 
Q 51.46875 38.875 51.46875 26.03125 
Q 51.46875 25.25 51.421875 23.6875 
L 12.75 23.6875 
Q 13.234375 15.140625 17.578125 10.59375 
Q 21.921875 6.0625 28.421875 6.0625 
Q 33.25 6.0625 36.671875 8.59375 
Q 40.09375 11.140625 42.09375 16.703125 
z
M 13.234375 30.90625 
L 42.1875 30.90625 
Q 41.609375 37.453125 38.875 40.71875 
Q 34.671875 45.796875 27.984375 45.796875 
Q 21.921875 45.796875 17.796875 41.75 
Q 13.671875 37.703125 13.234375 30.90625 
z
" id="ArialMT-101"/>
      <path d="M 40.4375 6.390625 
Q 35.546875 2.25 31.03125 0.53125 
Q 26.515625 -1.171875 21.34375 -1.171875 
Q 12.796875 -1.171875 8.203125 3 
Q 3.609375 7.171875 3.609375 13.671875 
Q 3.609375 17.484375 5.34375 20.625 
Q 7.078125 23.78125 9.890625 25.6875 
Q 12.703125 27.59375 16.21875 28.5625 
Q 18.796875 29.25 24.03125 29.890625 
Q 34.671875 31.15625 39.703125 32.90625 
Q 39.75 34.71875 39.75 35.203125 
Q 39.75 40.578125 37.25 42.78125 
Q 33.890625 45.75 27.25 45.75 
Q 21.046875 45.75 18.09375 43.578125 
Q 15.140625 41.40625 13.71875 35.890625 
L 5.125 37.0625 
Q 6.296875 42.578125 8.984375 45.96875 
Q 11.671875 49.359375 16.75 51.1875 
Q 21.828125 53.03125 28.515625 53.03125 
Q 35.15625 53.03125 39.296875 51.46875 
Q 43.453125 49.90625 45.40625 47.53125 
Q 47.359375 45.171875 48.140625 41.546875 
Q 48.578125 39.3125 48.578125 33.453125 
L 48.578125 21.734375 
Q 48.578125 9.46875 49.140625 6.21875 
Q 49.703125 2.984375 51.375 0 
L 42.1875 0 
Q 40.828125 2.734375 40.4375 6.390625 
z
M 39.703125 26.03125 
Q 34.90625 24.078125 25.34375 22.703125 
Q 19.921875 21.921875 17.671875 20.9375 
Q 15.4375 19.96875 14.203125 18.09375 
Q 12.984375 16.21875 12.984375 13.921875 
Q 12.984375 10.40625 15.640625 8.0625 
Q 18.3125 5.71875 23.4375 5.71875 
Q 28.515625 5.71875 32.46875 7.9375 
Q 36.421875 10.15625 38.28125 14.015625 
Q 39.703125 17 39.703125 22.796875 
z
" id="ArialMT-97"/>
      <path d="M 25.78125 7.859375 
L 27.046875 0.09375 
Q 23.34375 -0.6875 20.40625 -0.6875 
Q 15.625 -0.6875 12.984375 0.828125 
Q 10.359375 2.34375 9.28125 4.8125 
Q 8.203125 7.28125 8.203125 15.1875 
L 8.203125 45.015625 
L 1.765625 45.015625 
L 1.765625 51.859375 
L 8.203125 51.859375 
L 8.203125 64.703125 
L 16.9375 69.96875 
L 16.9375 51.859375 
L 25.78125 51.859375 
L 25.78125 45.015625 
L 16.9375 45.015625 
L 16.9375 14.703125 
Q 16.9375 10.9375 17.40625 9.859375 
Q 17.875 8.796875 18.921875 8.15625 
Q 19.96875 7.515625 21.921875 7.515625 
Q 23.390625 7.515625 25.78125 7.859375 
z
" id="ArialMT-116"/>
      <path d="M 6.59375 0 
L 6.59375 51.859375 
L 14.453125 51.859375 
L 14.453125 44.578125 
Q 16.890625 48.390625 20.9375 50.703125 
Q 25 53.03125 30.171875 53.03125 
Q 35.9375 53.03125 39.625 50.640625 
Q 43.3125 48.25 44.828125 43.953125 
Q 50.984375 53.03125 60.84375 53.03125 
Q 68.5625 53.03125 72.703125 48.75 
Q 76.859375 44.484375 76.859375 35.59375 
L 76.859375 0 
L 68.109375 0 
L 68.109375 32.671875 
Q 68.109375 37.9375 67.25 40.25 
Q 66.40625 42.578125 64.15625 43.984375 
Q 61.921875 45.40625 58.890625 45.40625 
Q 53.421875 45.40625 49.796875 41.765625 
Q 46.1875 38.140625 46.1875 30.125 
L 46.1875 0 
L 37.40625 0 
L 37.40625 33.6875 
Q 37.40625 39.546875 35.25 42.46875 
Q 33.109375 45.40625 28.21875 45.40625 
Q 24.515625 45.40625 21.359375 43.453125 
Q 18.21875 41.5 16.796875 37.734375 
Q 15.375 33.984375 15.375 26.90625 
L 15.375 0 
z
" id="ArialMT-109"/>
      <path d="M 6.59375 0 
L 6.59375 51.859375 
L 14.5 51.859375 
L 14.5 44.484375 
Q 20.21875 53.03125 31 53.03125 
Q 35.6875 53.03125 39.625 51.34375 
Q 43.5625 49.65625 45.515625 46.921875 
Q 47.46875 44.1875 48.25 40.4375 
Q 48.734375 37.984375 48.734375 31.890625 
L 48.734375 0 
L 39.9375 0 
L 39.9375 31.546875 
Q 39.9375 36.921875 38.90625 39.578125 
Q 37.890625 42.234375 35.28125 43.8125 
Q 32.671875 45.40625 29.15625 45.40625 
Q 23.53125 45.40625 19.453125 41.84375 
Q 15.375 38.28125 15.375 28.328125 
L 15.375 0 
z
" id="ArialMT-110"/>
     </defs>
     <g style="fill:#262626;" transform="translate(205.615 274.18875)scale(0.16 -0.16)">
      <use xlink:href="#ArialMT-84"/>
      <use x="61.037109" xlink:href="#ArialMT-114"/>
      <use x="94.337891" xlink:href="#ArialMT-101"/>
      <use x="149.953125" xlink:href="#ArialMT-97"/>
      <use x="205.568359" xlink:href="#ArialMT-116"/>
      <use x="233.351562" xlink:href="#ArialMT-109"/>
      <use x="316.652344" xlink:href="#ArialMT-101"/>
      <use x="372.267578" xlink:href="#ArialMT-110"/>
      <use x="427.882812" xlink:href="#ArialMT-116"/>
     </g>
    </g>
   </g>
   <g id="matplotlib.axis_2">
    <g id="ytick_1">
     <g id="line2d_5">
      <defs>
       <path d="M 0 0 
L -3.5 0 
" id="mb198e67bf3" style="stroke:#262626;stroke-width:0.8;"/>
      </defs>
      <g>
       <use style="fill:#262626;stroke:#262626;stroke-width:0.8;" x="62.93" xlink:href="#mb198e67bf3" y="233.08"/>
      </g>
     </g>
     <g id="text_6">
      <!-- 0 -->
      <defs>
       <path d="M 4.15625 35.296875 
Q 4.15625 48 6.765625 55.734375 
Q 9.375 63.484375 14.515625 67.671875 
Q 19.671875 71.875 27.484375 71.875 
Q 33.25 71.875 37.59375 69.546875 
Q 41.9375 67.234375 44.765625 62.859375 
Q 47.609375 58.5 49.21875 52.21875 
Q 50.828125 45.953125 50.828125 35.296875 
Q 50.828125 22.703125 48.234375 14.96875 
Q 45.65625 7.234375 40.5 3 
Q 35.359375 -1.21875 27.484375 -1.21875 
Q 17.140625 -1.21875 11.234375 6.203125 
Q 4.15625 15.140625 4.15625 35.296875 
z
M 13.1875 35.296875 
Q 13.1875 17.671875 17.3125 11.828125 
Q 21.4375 6 27.484375 6 
Q 33.546875 6 37.671875 11.859375 
Q 41.796875 17.71875 41.796875 35.296875 
Q 41.796875 52.984375 37.671875 58.78125 
Q 33.546875 64.59375 27.390625 64.59375 
Q 21.34375 64.59375 17.71875 59.46875 
Q 13.1875 52.9375 13.1875 35.296875 
z
" id="ArialMT-48"/>
      </defs>
      <g style="fill:#262626;" transform="translate(49.256875 237.374687)scale(0.12 -0.12)">
       <use xlink:href="#ArialMT-48"/>
      </g>
     </g>
    </g>
    <g id="ytick_2">
     <g id="line2d_6">
      <g>
       <use style="fill:#262626;stroke:#262626;stroke-width:0.8;" x="62.93" xlink:href="#mb198e67bf3" y="202.742975"/>
      </g>
     </g>
     <g id="text_7">
      <!-- 1000 -->
      <defs>
       <path d="M 37.25 0 
L 28.46875 0 
L 28.46875 56 
Q 25.296875 52.984375 20.140625 49.953125 
Q 14.984375 46.921875 10.890625 45.40625 
L 10.890625 53.90625 
Q 18.265625 57.375 23.78125 62.296875 
Q 29.296875 67.234375 31.59375 71.875 
L 37.25 71.875 
z
" id="ArialMT-49"/>
      </defs>
      <g style="fill:#262626;" transform="translate(29.2375 207.037662)scale(0.12 -0.12)">
       <use xlink:href="#ArialMT-49"/>
       <use x="55.615234" xlink:href="#ArialMT-48"/>
       <use x="111.230469" xlink:href="#ArialMT-48"/>
       <use x="166.845703" xlink:href="#ArialMT-48"/>
      </g>
     </g>
    </g>
    <g id="ytick_3">
     <g id="line2d_7">
      <g>
       <use style="fill:#262626;stroke:#262626;stroke-width:0.8;" x="62.93" xlink:href="#mb198e67bf3" y="172.405949"/>
      </g>
     </g>
     <g id="text_8">
      <!-- 2000 -->
      <defs>
       <path d="M 50.34375 8.453125 
L 50.34375 0 
L 3.03125 0 
Q 2.9375 3.171875 4.046875 6.109375 
Q 5.859375 10.9375 9.828125 15.625 
Q 13.8125 20.3125 21.34375 26.46875 
Q 33.015625 36.03125 37.109375 41.625 
Q 41.21875 47.21875 41.21875 52.203125 
Q 41.21875 57.421875 37.46875 61 
Q 33.734375 64.59375 27.734375 64.59375 
Q 21.390625 64.59375 17.578125 60.78125 
Q 13.765625 56.984375 13.71875 50.25 
L 4.6875 51.171875 
Q 5.609375 61.28125 11.65625 66.578125 
Q 17.71875 71.875 27.9375 71.875 
Q 38.234375 71.875 44.234375 66.15625 
Q 50.25 60.453125 50.25 52 
Q 50.25 47.703125 48.484375 43.546875 
Q 46.734375 39.40625 42.65625 34.8125 
Q 38.578125 30.21875 29.109375 22.21875 
Q 21.1875 15.578125 18.9375 13.203125 
Q 16.703125 10.84375 15.234375 8.453125 
z
" id="ArialMT-50"/>
      </defs>
      <g style="fill:#262626;" transform="translate(29.2375 176.700637)scale(0.12 -0.12)">
       <use xlink:href="#ArialMT-50"/>
       <use x="55.615234" xlink:href="#ArialMT-48"/>
       <use x="111.230469" xlink:href="#ArialMT-48"/>
       <use x="166.845703" xlink:href="#ArialMT-48"/>
      </g>
     </g>
    </g>
    <g id="ytick_4">
     <g id="line2d_8">
      <g>
       <use style="fill:#262626;stroke:#262626;stroke-width:0.8;" x="62.93" xlink:href="#mb198e67bf3" y="142.068924"/>
      </g>
     </g>
     <g id="text_9">
      <!-- 3000 -->
      <defs>
       <path d="M 4.203125 18.890625 
L 12.984375 20.0625 
Q 14.5 12.59375 18.140625 9.296875 
Q 21.78125 6 27 6 
Q 33.203125 6 37.46875 10.296875 
Q 41.75 14.59375 41.75 20.953125 
Q 41.75 27 37.796875 30.921875 
Q 33.84375 34.859375 27.734375 34.859375 
Q 25.25 34.859375 21.53125 33.890625 
L 22.515625 41.609375 
Q 23.390625 41.5 23.921875 41.5 
Q 29.546875 41.5 34.03125 44.421875 
Q 38.53125 47.359375 38.53125 53.46875 
Q 38.53125 58.296875 35.25 61.46875 
Q 31.984375 64.65625 26.8125 64.65625 
Q 21.6875 64.65625 18.265625 61.421875 
Q 14.84375 58.203125 13.875 51.765625 
L 5.078125 53.328125 
Q 6.6875 62.15625 12.390625 67.015625 
Q 18.109375 71.875 26.609375 71.875 
Q 32.46875 71.875 37.390625 69.359375 
Q 42.328125 66.84375 44.9375 62.5 
Q 47.5625 58.15625 47.5625 53.265625 
Q 47.5625 48.640625 45.0625 44.828125 
Q 42.578125 41.015625 37.703125 38.765625 
Q 44.046875 37.3125 47.5625 32.6875 
Q 51.078125 28.078125 51.078125 21.140625 
Q 51.078125 11.765625 44.234375 5.25 
Q 37.40625 -1.265625 26.953125 -1.265625 
Q 17.53125 -1.265625 11.296875 4.34375 
Q 5.078125 9.96875 4.203125 18.890625 
z
" id="ArialMT-51"/>
      </defs>
      <g style="fill:#262626;" transform="translate(29.2375 146.363611)scale(0.12 -0.12)">
       <use xlink:href="#ArialMT-51"/>
       <use x="55.615234" xlink:href="#ArialMT-48"/>
       <use x="111.230469" xlink:href="#ArialMT-48"/>
       <use x="166.845703" xlink:href="#ArialMT-48"/>
      </g>
     </g>
    </g>
    <g id="ytick_5">
     <g id="line2d_9">
      <g>
       <use style="fill:#262626;stroke:#262626;stroke-width:0.8;" x="62.93" xlink:href="#mb198e67bf3" y="111.731898"/>
      </g>
     </g>
     <g id="text_10">
      <!-- 4000 -->
      <defs>
       <path d="M 32.328125 0 
L 32.328125 17.140625 
L 1.265625 17.140625 
L 1.265625 25.203125 
L 33.9375 71.578125 
L 41.109375 71.578125 
L 41.109375 25.203125 
L 50.78125 25.203125 
L 50.78125 17.140625 
L 41.109375 17.140625 
L 41.109375 0 
z
M 32.328125 25.203125 
L 32.328125 57.46875 
L 9.90625 25.203125 
z
" id="ArialMT-52"/>
      </defs>
      <g style="fill:#262626;" transform="translate(29.2375 116.026586)scale(0.12 -0.12)">
       <use xlink:href="#ArialMT-52"/>
       <use x="55.615234" xlink:href="#ArialMT-48"/>
       <use x="111.230469" xlink:href="#ArialMT-48"/>
       <use x="166.845703" xlink:href="#ArialMT-48"/>
      </g>
     </g>
    </g>
    <g id="ytick_6">
     <g id="line2d_10">
      <g>
       <use style="fill:#262626;stroke:#262626;stroke-width:0.8;" x="62.93" xlink:href="#mb198e67bf3" y="81.394873"/>
      </g>
     </g>
     <g id="text_11">
      <!-- 5000 -->
      <defs>
       <path d="M 4.15625 18.75 
L 13.375 19.53125 
Q 14.40625 12.796875 18.140625 9.390625 
Q 21.875 6 27.15625 6 
Q 33.5 6 37.890625 10.78125 
Q 42.28125 15.578125 42.28125 23.484375 
Q 42.28125 31 38.0625 35.34375 
Q 33.84375 39.703125 27 39.703125 
Q 22.75 39.703125 19.328125 37.765625 
Q 15.921875 35.84375 13.96875 32.765625 
L 5.71875 33.84375 
L 12.640625 70.609375 
L 48.25 70.609375 
L 48.25 62.203125 
L 19.671875 62.203125 
L 15.828125 42.96875 
Q 22.265625 47.46875 29.34375 47.46875 
Q 38.71875 47.46875 45.15625 40.96875 
Q 51.609375 34.46875 51.609375 24.265625 
Q 51.609375 14.546875 45.953125 7.46875 
Q 39.0625 -1.21875 27.15625 -1.21875 
Q 17.390625 -1.21875 11.203125 4.25 
Q 5.03125 9.71875 4.15625 18.75 
z
" id="ArialMT-53"/>
      </defs>
      <g style="fill:#262626;" transform="translate(29.2375 85.68956)scale(0.12 -0.12)">
       <use xlink:href="#ArialMT-53"/>
       <use x="55.615234" xlink:href="#ArialMT-48"/>
       <use x="111.230469" xlink:href="#ArialMT-48"/>
       <use x="166.845703" xlink:href="#ArialMT-48"/>
      </g>
     </g>
    </g>
    <g id="ytick_7">
     <g id="line2d_11">
      <g>
       <use style="fill:#262626;stroke:#262626;stroke-width:0.8;" x="62.93" xlink:href="#mb198e67bf3" y="51.057847"/>
      </g>
     </g>
     <g id="text_12">
      <!-- 6000 -->
      <defs>
       <path d="M 49.75 54.046875 
L 41.015625 53.375 
Q 39.84375 58.546875 37.703125 60.890625 
Q 34.125 64.65625 28.90625 64.65625 
Q 24.703125 64.65625 21.53125 62.3125 
Q 17.390625 59.28125 14.984375 53.46875 
Q 12.59375 47.65625 12.5 36.921875 
Q 15.671875 41.75 20.265625 44.09375 
Q 24.859375 46.4375 29.890625 46.4375 
Q 38.671875 46.4375 44.84375 39.96875 
Q 51.03125 33.5 51.03125 23.25 
Q 51.03125 16.5 48.125 10.71875 
Q 45.21875 4.9375 40.140625 1.859375 
Q 35.0625 -1.21875 28.609375 -1.21875 
Q 17.625 -1.21875 10.6875 6.859375 
Q 3.765625 14.9375 3.765625 33.5 
Q 3.765625 54.25 11.421875 63.671875 
Q 18.109375 71.875 29.4375 71.875 
Q 37.890625 71.875 43.28125 67.140625 
Q 48.6875 62.40625 49.75 54.046875 
z
M 13.875 23.1875 
Q 13.875 18.65625 15.796875 14.5 
Q 17.71875 10.359375 21.1875 8.171875 
Q 24.65625 6 28.46875 6 
Q 34.03125 6 38.03125 10.484375 
Q 42.046875 14.984375 42.046875 22.703125 
Q 42.046875 30.125 38.078125 34.390625 
Q 34.125 38.671875 28.125 38.671875 
Q 22.171875 38.671875 18.015625 34.390625 
Q 13.875 30.125 13.875 23.1875 
z
" id="ArialMT-54"/>
      </defs>
      <g style="fill:#262626;" transform="translate(29.2375 55.352535)scale(0.12 -0.12)">
       <use xlink:href="#ArialMT-54"/>
       <use x="55.615234" xlink:href="#ArialMT-48"/>
       <use x="111.230469" xlink:href="#ArialMT-48"/>
       <use x="166.845703" xlink:href="#ArialMT-48"/>
      </g>
     </g>
    </g>
    <g id="text_13">
     <!-- Normalized reads (RPKM) -->
     <defs>
      <path d="M 3.328125 25.921875 
Q 3.328125 40.328125 11.328125 47.265625 
Q 18.015625 53.03125 27.640625 53.03125 
Q 38.328125 53.03125 45.109375 46.015625 
Q 51.90625 39.015625 51.90625 26.65625 
Q 51.90625 16.65625 48.90625 10.90625 
Q 45.90625 5.171875 40.15625 2 
Q 34.421875 -1.171875 27.640625 -1.171875 
Q 16.75 -1.171875 10.03125 5.8125 
Q 3.328125 12.796875 3.328125 25.921875 
z
M 12.359375 25.921875 
Q 12.359375 15.96875 16.703125 11.015625 
Q 21.046875 6.0625 27.640625 6.0625 
Q 34.1875 6.0625 38.53125 11.03125 
Q 42.875 16.015625 42.875 26.21875 
Q 42.875 35.84375 38.5 40.796875 
Q 34.125 45.75 27.640625 45.75 
Q 21.046875 45.75 16.703125 40.8125 
Q 12.359375 35.890625 12.359375 25.921875 
z
" id="ArialMT-111"/>
      <path d="M 6.390625 0 
L 6.390625 71.578125 
L 15.1875 71.578125 
L 15.1875 0 
z
" id="ArialMT-108"/>
      <path d="M 6.640625 61.46875 
L 6.640625 71.578125 
L 15.4375 71.578125 
L 15.4375 61.46875 
z
M 6.640625 0 
L 6.640625 51.859375 
L 15.4375 51.859375 
L 15.4375 0 
z
" id="ArialMT-105"/>
      <path d="M 1.953125 0 
L 1.953125 7.125 
L 34.96875 45.015625 
Q 29.34375 44.734375 25.046875 44.734375 
L 3.90625 44.734375 
L 3.90625 51.859375 
L 46.296875 51.859375 
L 46.296875 46.046875 
L 18.21875 13.140625 
L 12.796875 7.125 
Q 18.703125 7.5625 23.875 7.5625 
L 47.859375 7.5625 
L 47.859375 0 
z
" id="ArialMT-122"/>
      <path d="M 40.234375 0 
L 40.234375 6.546875 
Q 35.296875 -1.171875 25.734375 -1.171875 
Q 19.53125 -1.171875 14.328125 2.25 
Q 9.125 5.671875 6.265625 11.796875 
Q 3.421875 17.921875 3.421875 25.875 
Q 3.421875 33.640625 6 39.96875 
Q 8.59375 46.296875 13.765625 49.65625 
Q 18.953125 53.03125 25.34375 53.03125 
Q 30.03125 53.03125 33.6875 51.046875 
Q 37.359375 49.078125 39.65625 45.90625 
L 39.65625 71.578125 
L 48.390625 71.578125 
L 48.390625 0 
z
M 12.453125 25.875 
Q 12.453125 15.921875 16.640625 10.984375 
Q 20.84375 6.0625 26.5625 6.0625 
Q 32.328125 6.0625 36.34375 10.765625 
Q 40.375 15.484375 40.375 25.140625 
Q 40.375 35.796875 36.265625 40.765625 
Q 32.171875 45.75 26.171875 45.75 
Q 20.3125 45.75 16.375 40.96875 
Q 12.453125 36.1875 12.453125 25.875 
z
" id="ArialMT-100"/>
      <path id="ArialMT-32"/>
      <path d="M 3.078125 15.484375 
L 11.765625 16.84375 
Q 12.5 11.625 15.84375 8.84375 
Q 19.1875 6.0625 25.203125 6.0625 
Q 31.25 6.0625 34.171875 8.515625 
Q 37.109375 10.984375 37.109375 14.3125 
Q 37.109375 17.28125 34.515625 19 
Q 32.71875 20.171875 25.53125 21.96875 
Q 15.875 24.421875 12.140625 26.203125 
Q 8.40625 27.984375 6.46875 31.125 
Q 4.546875 34.28125 4.546875 38.09375 
Q 4.546875 41.546875 6.125 44.5 
Q 7.71875 47.46875 10.453125 49.421875 
Q 12.5 50.921875 16.03125 51.96875 
Q 19.578125 53.03125 23.640625 53.03125 
Q 29.734375 53.03125 34.34375 51.265625 
Q 38.96875 49.515625 41.15625 46.5 
Q 43.359375 43.5 44.1875 38.484375 
L 35.59375 37.3125 
Q 35.015625 41.3125 32.203125 43.546875 
Q 29.390625 45.796875 24.265625 45.796875 
Q 18.21875 45.796875 15.625 43.796875 
Q 13.03125 41.796875 13.03125 39.109375 
Q 13.03125 37.40625 14.109375 36.03125 
Q 15.1875 34.625 17.484375 33.6875 
Q 18.796875 33.203125 25.25 31.453125 
Q 34.578125 28.953125 38.25 27.359375 
Q 41.9375 25.78125 44.03125 22.75 
Q 46.140625 19.734375 46.140625 15.234375 
Q 46.140625 10.84375 43.578125 6.953125 
Q 41.015625 3.078125 36.171875 0.953125 
Q 31.34375 -1.171875 25.25 -1.171875 
Q 15.140625 -1.171875 9.84375 3.03125 
Q 4.546875 7.234375 3.078125 15.484375 
z
" id="ArialMT-115"/>
      <path d="M 23.390625 -21.046875 
Q 16.109375 -11.859375 11.078125 0.4375 
Q 6.0625 12.75 6.0625 25.921875 
Q 6.0625 37.546875 9.8125 48.1875 
Q 14.203125 60.546875 23.390625 72.796875 
L 29.6875 72.796875 
Q 23.78125 62.640625 21.875 58.296875 
Q 18.890625 51.5625 17.1875 44.234375 
Q 15.09375 35.109375 15.09375 25.875 
Q 15.09375 2.390625 29.6875 -21.046875 
z
" id="ArialMT-40"/>
      <path d="M 7.71875 0 
L 7.71875 71.578125 
L 34.71875 71.578125 
Q 41.84375 71.578125 45.609375 70.90625 
Q 50.875 70.015625 54.4375 67.546875 
Q 58.015625 65.09375 60.1875 60.640625 
Q 62.359375 56.203125 62.359375 50.875 
Q 62.359375 41.75 56.546875 35.421875 
Q 50.734375 29.109375 35.546875 29.109375 
L 17.1875 29.109375 
L 17.1875 0 
z
M 17.1875 37.546875 
L 35.6875 37.546875 
Q 44.875 37.546875 48.734375 40.96875 
Q 52.59375 44.390625 52.59375 50.59375 
Q 52.59375 55.078125 50.3125 58.265625 
Q 48.046875 61.46875 44.34375 62.5 
Q 41.9375 63.140625 35.5 63.140625 
L 17.1875 63.140625 
z
" id="ArialMT-80"/>
      <path d="M 7.328125 0 
L 7.328125 71.578125 
L 16.796875 71.578125 
L 16.796875 36.078125 
L 52.34375 71.578125 
L 65.1875 71.578125 
L 35.15625 42.578125 
L 66.5 0 
L 54 0 
L 28.515625 36.234375 
L 16.796875 24.8125 
L 16.796875 0 
z
" id="ArialMT-75"/>
      <path d="M 7.421875 0 
L 7.421875 71.578125 
L 21.6875 71.578125 
L 38.625 20.90625 
Q 40.96875 13.8125 42.046875 10.296875 
Q 43.265625 14.203125 45.84375 21.78125 
L 62.984375 71.578125 
L 75.734375 71.578125 
L 75.734375 0 
L 66.609375 0 
L 66.609375 59.90625 
L 45.796875 0 
L 37.25 0 
L 16.546875 60.9375 
L 16.546875 0 
z
" id="ArialMT-77"/>
      <path d="M 12.359375 -21.046875 
L 6.0625 -21.046875 
Q 20.65625 2.390625 20.65625 25.875 
Q 20.65625 35.0625 18.5625 44.09375 
Q 16.890625 51.421875 13.921875 58.15625 
Q 12.015625 62.546875 6.0625 72.796875 
L 12.359375 72.796875 
Q 21.53125 60.546875 25.921875 48.1875 
Q 29.6875 37.546875 29.6875 25.921875 
Q 29.6875 12.75 24.625 0.4375 
Q 19.578125 -11.859375 12.359375 -21.046875 
z
" id="ArialMT-41"/>
     </defs>
     <g style="fill:#262626;" transform="translate(21.87 225.53625)rotate(-90)scale(0.16 -0.16)">
      <use xlink:href="#ArialMT-78"/>
      <use x="72.216797" xlink:href="#ArialMT-111"/>
      <use x="127.832031" xlink:href="#ArialMT-114"/>
      <use x="161.132812" xlink:href="#ArialMT-109"/>
      <use x="244.433594" xlink:href="#ArialMT-97"/>
      <use x="300.048828" xlink:href="#ArialMT-108"/>
      <use x="322.265625" xlink:href="#ArialMT-105"/>
      <use x="344.482422" xlink:href="#ArialMT-122"/>
      <use x="394.482422" xlink:href="#ArialMT-101"/>
      <use x="450.097656" xlink:href="#ArialMT-100"/>
      <use x="505.712891" xlink:href="#ArialMT-32"/>
      <use x="533.496094" xlink:href="#ArialMT-114"/>
      <use x="566.796875" xlink:href="#ArialMT-101"/>
      <use x="622.412109" xlink:href="#ArialMT-97"/>
      <use x="678.027344" xlink:href="#ArialMT-100"/>
      <use x="733.642578" xlink:href="#ArialMT-115"/>
      <use x="783.642578" xlink:href="#ArialMT-32"/>
      <use x="811.425781" xlink:href="#ArialMT-40"/>
      <use x="844.726562" xlink:href="#ArialMT-82"/>
      <use x="916.943359" xlink:href="#ArialMT-80"/>
      <use x="983.642578" xlink:href="#ArialMT-75"/>
      <use x="1050.341797" xlink:href="#ArialMT-77"/>
      <use x="1133.642578" xlink:href="#ArialMT-41"/>
     </g>
    </g>
   </g>
   <g id="patch_3">
    <path clip-path="url(#p12a69cdbe2)" d="M 85.321875 233.08 
L 94.278625 233.08 
L 94.278625 131.483045 
L 85.321875 131.483045 
z
" style="fill:#1f77b4;stroke:#ffffff;stroke-linejoin:miter;"/>
   </g>
   <g id="patch_4">
    <path clip-path="url(#p12a69cdbe2)" d="M 174.889375 233.08 
L 183.846125 233.08 
L 183.846125 52.72178 
L 174.889375 52.72178 
z
" style="fill:#1f77b4;stroke:#ffffff;stroke-linejoin:miter;"/>
   </g>
   <g id="patch_5">
    <path clip-path="url(#p12a69cdbe2)" d="M 264.456875 233.08 
L 273.413625 233.08 
L 273.413625 109.02122 
L 264.456875 109.02122 
z
" style="fill:#1f77b4;stroke:#ffffff;stroke-linejoin:miter;"/>
   </g>
   <g id="patch_6">
    <path clip-path="url(#p12a69cdbe2)" d="M 354.024375 233.08 
L 362.981125 233.08 
L 362.981125 195.490709 
L 354.024375 195.490709 
z
" style="fill:#1f77b4;stroke:#ffffff;stroke-linejoin:miter;"/>
   </g>
   <g id="patch_7">
    <path clip-path="url(#p12a69cdbe2)" d="M 94.278625 233.08 
L 103.235375 233.08 
L 103.235375 232.794312 
L 94.278625 232.794312 
z
" style="fill:#ff7f0e;stroke:#ffffff;stroke-linejoin:miter;"/>
   </g>
   <g id="patch_8">
    <path clip-path="url(#p12a69cdbe2)" d="M 183.846125 233.08 
L 192.802875 233.08 
L 192.802875 232.735429 
L 183.846125 232.735429 
z
" style="fill:#ff7f0e;stroke:#ffffff;stroke-linejoin:miter;"/>
   </g>
   <g id="patch_9">
    <path clip-path="url(#p12a69cdbe2)" d="M 273.413625 233.08 
L 282.370375 233.08 
L 282.370375 232.798122 
L 273.413625 232.798122 
z
" style="fill:#ff7f0e;stroke:#ffffff;stroke-linejoin:miter;"/>
   </g>
   <g id="patch_10">
    <path clip-path="url(#p12a69cdbe2)" d="M 362.981125 233.08 
L 371.937875 233.08 
L 371.937875 233.004896 
L 362.981125 233.004896 
z
" style="fill:#ff7f0e;stroke:#ffffff;stroke-linejoin:miter;"/>
   </g>
   <g id="patch_11">
    <path clip-path="url(#p12a69cdbe2)" d="M 103.235375 233.08 
L 112.192125 233.08 
L 112.192125 231.261027 
L 103.235375 231.261027 
z
" style="fill:#2ca02c;stroke:#ffffff;stroke-linejoin:miter;"/>
   </g>
   <g id="patch_12">
    <path clip-path="url(#p12a69cdbe2)" d="M 192.802875 233.08 
L 201.759625 233.08 
L 201.759625 231.252501 
L 192.802875 231.252501 
z
" style="fill:#2ca02c;stroke:#ffffff;stroke-linejoin:miter;"/>
   </g>
   <g id="patch_13">
    <path clip-path="url(#p12a69cdbe2)" d="M 282.370375 233.08 
L 291.327125 233.08 
L 291.327125 231.832694 
L 282.370375 231.832694 
z
" style="fill:#2ca02c;stroke:#ffffff;stroke-linejoin:miter;"/>
   </g>
   <g id="patch_14">
    <path clip-path="url(#p12a69cdbe2)" d="M 371.937875 233.08 
L 380.894625 233.08 
L 380.894625 232.864108 
L 371.937875 232.864108 
z
" style="fill:#2ca02c;stroke:#ffffff;stroke-linejoin:miter;"/>
   </g>
   <g id="patch_15">
    <path clip-path="url(#p12a69cdbe2)" d="M 112.192125 233.08 
L 121.148875 233.08 
L 121.148875 231.485606 
L 112.192125 231.485606 
z
" style="fill:#d62728;stroke:#ffffff;stroke-linejoin:miter;"/>
   </g>
   <g id="patch_16">
    <path clip-path="url(#p12a69cdbe2)" d="M 201.759625 233.08 
L 210.716375 233.08 
L 210.716375 232.612315 
L 201.759625 232.612315 
z
" style="fill:#d62728;stroke:#ffffff;stroke-linejoin:miter;"/>
   </g>
   <g id="patch_17">
    <path clip-path="url(#p12a69cdbe2)" d="M 291.327125 233.08 
L 300.283875 233.08 
L 300.283875 232.256051 
L 291.327125 232.256051 
z
" style="fill:#d62728;stroke:#ffffff;stroke-linejoin:miter;"/>
   </g>
   <g id="patch_18">
    <path clip-path="url(#p12a69cdbe2)" d="M 380.894625 233.08 
L 389.851375 233.08 
L 389.851375 232.990303 
L 380.894625 232.990303 
z
" style="fill:#d62728;stroke:#ffffff;stroke-linejoin:miter;"/>
   </g>
   <g id="patch_19">
    <path clip-path="url(#p12a69cdbe2)" d="M 121.148875 233.08 
L 130.105625 233.08 
L 130.105625 232.46922 
L 121.148875 232.46922 
z
" style="fill:#9467bd;stroke:#ffffff;stroke-linejoin:miter;"/>
   </g>
   <g id="patch_20">
    <path clip-path="url(#p12a69cdbe2)" d="M 210.716375 233.08 
L 219.673125 233.08 
L 219.673125 231.631965 
L 210.716375 231.631965 
z
" style="fill:#9467bd;stroke:#ffffff;stroke-linejoin:miter;"/>
   </g>
   <g id="patch_21">
    <path clip-path="url(#p12a69cdbe2)" d="M 300.283875 233.08 
L 309.240625 233.08 
L 309.240625 232.033392 
L 300.283875 232.033392 
z
" style="fill:#9467bd;stroke:#ffffff;stroke-linejoin:miter;"/>
   </g>
   <g id="patch_22">
    <path clip-path="url(#p12a69cdbe2)" d="M 389.851375 233.08 
L 398.808125 233.08 
L 398.808125 232.768544 
L 389.851375 232.768544 
z
" style="fill:#9467bd;stroke:#ffffff;stroke-linejoin:miter;"/>
   </g>
   <g id="LineCollection_1">
    <path clip-path="url(#p12a69cdbe2)" d="M 89.80025 142.007765 
L 89.80025 120.958325 
" style="fill:none;stroke:#262626;stroke-width:1.5;"/>
    <path clip-path="url(#p12a69cdbe2)" d="M 179.36775 64.544513 
L 179.36775 40.899048 
" style="fill:none;stroke:#262626;stroke-width:1.5;"/>
    <path clip-path="url(#p12a69cdbe2)" d="M 268.93525 115.478631 
L 268.93525 102.563809 
" style="fill:none;stroke:#262626;stroke-width:1.5;"/>
    <path clip-path="url(#p12a69cdbe2)" d="M 358.50275 204.115839 
L 358.50275 186.865578 
" style="fill:none;stroke:#262626;stroke-width:1.5;"/>
   </g>
   <g id="LineCollection_2">
    <path clip-path="url(#p12a69cdbe2)" d="M 98.757 232.808349 
L 98.757 232.780276 
" style="fill:none;stroke:#262626;stroke-width:1.5;"/>
    <path clip-path="url(#p12a69cdbe2)" d="M 188.3245 232.74975 
L 188.3245 232.721108 
" style="fill:none;stroke:#262626;stroke-width:1.5;"/>
    <path clip-path="url(#p12a69cdbe2)" d="M 277.892 232.80391 
L 277.892 232.792334 
" style="fill:none;stroke:#262626;stroke-width:1.5;"/>
    <path clip-path="url(#p12a69cdbe2)" d="M 367.4595 233.015627 
L 367.4595 232.994166 
" style="fill:none;stroke:#262626;stroke-width:1.5;"/>
   </g>
   <g id="LineCollection_3">
    <path clip-path="url(#p12a69cdbe2)" d="M 107.71375 231.514259 
L 107.71375 231.007796 
" style="fill:none;stroke:#262626;stroke-width:1.5;"/>
    <path clip-path="url(#p12a69cdbe2)" d="M 197.28125 231.389898 
L 197.28125 231.115103 
" style="fill:none;stroke:#262626;stroke-width:1.5;"/>
    <path clip-path="url(#p12a69cdbe2)" d="M 286.84875 231.886181 
L 286.84875 231.779206 
" style="fill:none;stroke:#262626;stroke-width:1.5;"/>
    <path clip-path="url(#p12a69cdbe2)" d="M 376.41625 232.894806 
L 376.41625 232.83341 
" style="fill:none;stroke:#262626;stroke-width:1.5;"/>
   </g>
   <g id="LineCollection_4">
    <path clip-path="url(#p12a69cdbe2)" d="M 116.6705 231.850265 
L 116.6705 231.120947 
" style="fill:none;stroke:#262626;stroke-width:1.5;"/>
    <path clip-path="url(#p12a69cdbe2)" d="M 206.238 232.687551 
L 206.238 232.53708 
" style="fill:none;stroke:#262626;stroke-width:1.5;"/>
    <path clip-path="url(#p12a69cdbe2)" d="M 295.8055 232.44351 
L 295.8055 232.068592 
" style="fill:none;stroke:#262626;stroke-width:1.5;"/>
    <path clip-path="url(#p12a69cdbe2)" d="M 385.373 233.002503 
L 385.373 232.978103 
" style="fill:none;stroke:#262626;stroke-width:1.5;"/>
   </g>
   <g id="LineCollection_5">
    <path clip-path="url(#p12a69cdbe2)" d="M 125.62725 232.600014 
L 125.62725 232.338426 
" style="fill:none;stroke:#262626;stroke-width:1.5;"/>
    <path clip-path="url(#p12a69cdbe2)" d="M 215.19475 231.723943 
L 215.19475 231.539987 
" style="fill:none;stroke:#262626;stroke-width:1.5;"/>
    <path clip-path="url(#p12a69cdbe2)" d="M 304.76225 232.21944 
L 304.76225 231.847343 
" style="fill:none;stroke:#262626;stroke-width:1.5;"/>
    <path clip-path="url(#p12a69cdbe2)" d="M 394.32975 232.789662 
L 394.32975 232.747426 
" style="fill:none;stroke:#262626;stroke-width:1.5;"/>
   </g>
   <g id="line2d_12">
    <defs>
     <path d="M 3 0 
L -3 -0 
" id="ma3cd92f1b1" style="stroke:#262626;"/>
    </defs>
    <g clip-path="url(#p12a69cdbe2)">
     <use style="fill:#262626;stroke:#262626;" x="89.80025" xlink:href="#ma3cd92f1b1" y="142.007765"/>
     <use style="fill:#262626;stroke:#262626;" x="179.36775" xlink:href="#ma3cd92f1b1" y="64.544513"/>
     <use style="fill:#262626;stroke:#262626;" x="268.93525" xlink:href="#ma3cd92f1b1" y="115.478631"/>
     <use style="fill:#262626;stroke:#262626;" x="358.50275" xlink:href="#ma3cd92f1b1" y="204.115839"/>
    </g>
   </g>
   <g id="line2d_13">
    <g clip-path="url(#p12a69cdbe2)">
     <use style="fill:#262626;stroke:#262626;" x="89.80025" xlink:href="#ma3cd92f1b1" y="120.958325"/>
     <use style="fill:#262626;stroke:#262626;" x="179.36775" xlink:href="#ma3cd92f1b1" y="40.899048"/>
     <use style="fill:#262626;stroke:#262626;" x="268.93525" xlink:href="#ma3cd92f1b1" y="102.563809"/>
     <use style="fill:#262626;stroke:#262626;" x="358.50275" xlink:href="#ma3cd92f1b1" y="186.865578"/>
    </g>
   </g>
   <g id="line2d_14">
    <g clip-path="url(#p12a69cdbe2)">
     <use style="fill:#262626;stroke:#262626;" x="98.757" xlink:href="#ma3cd92f1b1" y="232.808349"/>
     <use style="fill:#262626;stroke:#262626;" x="188.3245" xlink:href="#ma3cd92f1b1" y="232.74975"/>
     <use style="fill:#262626;stroke:#262626;" x="277.892" xlink:href="#ma3cd92f1b1" y="232.80391"/>
     <use style="fill:#262626;stroke:#262626;" x="367.4595" xlink:href="#ma3cd92f1b1" y="233.015627"/>
    </g>
   </g>
   <g id="line2d_15">
    <g clip-path="url(#p12a69cdbe2)">
     <use style="fill:#262626;stroke:#262626;" x="98.757" xlink:href="#ma3cd92f1b1" y="232.780276"/>
     <use style="fill:#262626;stroke:#262626;" x="188.3245" xlink:href="#ma3cd92f1b1" y="232.721108"/>
     <use style="fill:#262626;stroke:#262626;" x="277.892" xlink:href="#ma3cd92f1b1" y="232.792334"/>
     <use style="fill:#262626;stroke:#262626;" x="367.4595" xlink:href="#ma3cd92f1b1" y="232.994166"/>
    </g>
   </g>
   <g id="line2d_16">
    <g clip-path="url(#p12a69cdbe2)">
     <use style="fill:#262626;stroke:#262626;" x="107.71375" xlink:href="#ma3cd92f1b1" y="231.514259"/>
     <use style="fill:#262626;stroke:#262626;" x="197.28125" xlink:href="#ma3cd92f1b1" y="231.389898"/>
     <use style="fill:#262626;stroke:#262626;" x="286.84875" xlink:href="#ma3cd92f1b1" y="231.886181"/>
     <use style="fill:#262626;stroke:#262626;" x="376.41625" xlink:href="#ma3cd92f1b1" y="232.894806"/>
    </g>
   </g>
   <g id="line2d_17">
    <g clip-path="url(#p12a69cdbe2)">
     <use style="fill:#262626;stroke:#262626;" x="107.71375" xlink:href="#ma3cd92f1b1" y="231.007796"/>
     <use style="fill:#262626;stroke:#262626;" x="197.28125" xlink:href="#ma3cd92f1b1" y="231.115103"/>
     <use style="fill:#262626;stroke:#262626;" x="286.84875" xlink:href="#ma3cd92f1b1" y="231.779206"/>
     <use style="fill:#262626;stroke:#262626;" x="376.41625" xlink:href="#ma3cd92f1b1" y="232.83341"/>
    </g>
   </g>
   <g id="line2d_18">
    <g clip-path="url(#p12a69cdbe2)">
     <use style="fill:#262626;stroke:#262626;" x="116.6705" xlink:href="#ma3cd92f1b1" y="231.850265"/>
     <use style="fill:#262626;stroke:#262626;" x="206.238" xlink:href="#ma3cd92f1b1" y="232.687551"/>
     <use style="fill:#262626;stroke:#262626;" x="295.8055" xlink:href="#ma3cd92f1b1" y="232.44351"/>
     <use style="fill:#262626;stroke:#262626;" x="385.373" xlink:href="#ma3cd92f1b1" y="233.002503"/>
    </g>
   </g>
   <g id="line2d_19">
    <g clip-path="url(#p12a69cdbe2)">
     <use style="fill:#262626;stroke:#262626;" x="116.6705" xlink:href="#ma3cd92f1b1" y="231.120947"/>
     <use style="fill:#262626;stroke:#262626;" x="206.238" xlink:href="#ma3cd92f1b1" y="232.53708"/>
     <use style="fill:#262626;stroke:#262626;" x="295.8055" xlink:href="#ma3cd92f1b1" y="232.068592"/>
     <use style="fill:#262626;stroke:#262626;" x="385.373" xlink:href="#ma3cd92f1b1" y="232.978103"/>
    </g>
   </g>
   <g id="line2d_20">
    <g clip-path="url(#p12a69cdbe2)">
     <use style="fill:#262626;stroke:#262626;" x="125.62725" xlink:href="#ma3cd92f1b1" y="232.600014"/>
     <use style="fill:#262626;stroke:#262626;" x="215.19475" xlink:href="#ma3cd92f1b1" y="231.723943"/>
     <use style="fill:#262626;stroke:#262626;" x="304.76225" xlink:href="#ma3cd92f1b1" y="232.21944"/>
     <use style="fill:#262626;stroke:#262626;" x="394.32975" xlink:href="#ma3cd92f1b1" y="232.789662"/>
    </g>
   </g>
   <g id="line2d_21">
    <g clip-path="url(#p12a69cdbe2)">
     <use style="fill:#262626;stroke:#262626;" x="125.62725" xlink:href="#ma3cd92f1b1" y="232.338426"/>
     <use style="fill:#262626;stroke:#262626;" x="215.19475" xlink:href="#ma3cd92f1b1" y="231.539987"/>
     <use style="fill:#262626;stroke:#262626;" x="304.76225" xlink:href="#ma3cd92f1b1" y="231.847343"/>
     <use style="fill:#262626;stroke:#262626;" x="394.32975" xlink:href="#ma3cd92f1b1" y="232.747426"/>
    </g>
   </g>
   <g id="patch_23">
    <path d="M 62.93 233.08 
L 62.93 31.29 
" style="fill:none;stroke:#262626;stroke-linecap:square;stroke-linejoin:miter;stroke-width:0.8;"/>
   </g>
   <g id="patch_24">
    <path d="M 421.2 233.08 
L 421.2 31.29 
" style="fill:none;stroke:#262626;stroke-linecap:square;stroke-linejoin:miter;stroke-width:0.8;"/>
   </g>
   <g id="patch_25">
    <path d="M 62.93 233.08 
L 421.2 233.08 
" style="fill:none;stroke:#262626;stroke-linecap:square;stroke-linejoin:miter;stroke-width:0.8;"/>
   </g>
   <g id="patch_26">
    <path d="M 62.93 31.29 
L 421.2 31.29 
" style="fill:none;stroke:#262626;stroke-linecap:square;stroke-linejoin:miter;stroke-width:0.8;"/>
   </g>
   <g id="text_14">
    <!-- DT_v_WT lowest -->
    <defs>
     <path d="M -1.515625 -19.875 
L -1.515625 -13.53125 
L 56.734375 -13.53125 
L 56.734375 -19.875 
z
" id="ArialMT-95"/>
     <path d="M 21 0 
L 1.265625 51.859375 
L 10.546875 51.859375 
L 21.6875 20.796875 
Q 23.484375 15.765625 25 10.359375 
Q 26.171875 14.453125 28.265625 20.21875 
L 39.796875 51.859375 
L 48.828125 51.859375 
L 29.203125 0 
z
" id="ArialMT-118"/>
     <path d="M 16.15625 0 
L 0.296875 51.859375 
L 9.375 51.859375 
L 17.625 21.921875 
L 20.703125 10.796875 
Q 20.90625 11.625 23.390625 21.484375 
L 31.640625 51.859375 
L 40.671875 51.859375 
L 48.4375 21.78125 
L 51.03125 11.859375 
L 54 21.875 
L 62.890625 51.859375 
L 71.4375 51.859375 
L 55.21875 0 
L 46.09375 0 
L 37.84375 31.0625 
L 35.84375 39.890625 
L 25.34375 0 
z
" id="ArialMT-119"/>
    </defs>
    <g style="fill:#262626;" transform="translate(165.94625 25.29)scale(0.2 -0.2)">
     <use xlink:href="#ArialMT-68"/>
     <use x="72.216797" xlink:href="#ArialMT-84"/>
     <use x="133.300781" xlink:href="#ArialMT-95"/>
     <use x="188.916016" xlink:href="#ArialMT-118"/>
     <use x="238.916016" xlink:href="#ArialMT-95"/>
     <use x="294.53125" xlink:href="#ArialMT-87"/>
     <use x="388.916016" xlink:href="#ArialMT-84"/>
     <use x="449.984375" xlink:href="#ArialMT-32"/>
     <use x="477.767578" xlink:href="#ArialMT-108"/>
     <use x="499.984375" xlink:href="#ArialMT-111"/>
     <use x="555.599609" xlink:href="#ArialMT-119"/>
     <use x="627.816406" xlink:href="#ArialMT-101"/>
     <use x="683.431641" xlink:href="#ArialMT-115"/>
     <use x="733.431641" xlink:href="#ArialMT-116"/>
    </g>
   </g>
   <g id="legend_1">
    <g id="patch_27">
     <path d="M 328.289062 110.016563 
L 414.2 110.016563 
Q 416.2 110.016563 416.2 108.016563 
L 416.2 38.29 
Q 416.2 36.29 414.2 36.29 
L 328.289062 36.29 
Q 326.289062 36.29 326.289062 38.29 
L 326.289062 108.016563 
Q 326.289062 110.016563 328.289062 110.016563 
z
" style="fill:#ffffff;opacity:0.8;stroke:#cccccc;stroke-linejoin:miter;"/>
    </g>
    <g id="patch_28">
     <path d="M 330.289062 47.447813 
L 350.289062 47.447813 
L 350.289062 40.447813 
L 330.289062 40.447813 
z
" style="fill:#1f77b4;stroke:#ffffff;stroke-linejoin:miter;"/>
    </g>
    <g id="text_15">
     <!-- AT1G12090 -->
     <defs>
      <path d="M -0.140625 0 
L 27.34375 71.578125 
L 37.546875 71.578125 
L 66.84375 0 
L 56.0625 0 
L 47.703125 21.6875 
L 17.78125 21.6875 
L 9.90625 0 
z
M 20.515625 29.390625 
L 44.78125 29.390625 
L 37.3125 49.21875 
Q 33.890625 58.25 32.234375 64.0625 
Q 30.859375 57.171875 28.375 50.390625 
z
" id="ArialMT-65"/>
      <path d="M 41.21875 28.078125 
L 41.21875 36.46875 
L 71.53125 36.53125 
L 71.53125 9.96875 
Q 64.546875 4.390625 57.125 1.578125 
Q 49.703125 -1.21875 41.890625 -1.21875 
Q 31.34375 -1.21875 22.71875 3.296875 
Q 14.109375 7.8125 9.71875 16.359375 
Q 5.328125 24.90625 5.328125 35.453125 
Q 5.328125 45.90625 9.6875 54.953125 
Q 14.0625 64.015625 22.265625 68.40625 
Q 30.46875 72.796875 41.15625 72.796875 
Q 48.921875 72.796875 55.1875 70.28125 
Q 61.46875 67.78125 65.03125 63.28125 
Q 68.609375 58.796875 70.453125 51.5625 
L 61.921875 49.21875 
Q 60.296875 54.6875 57.90625 57.8125 
Q 55.515625 60.9375 51.0625 62.8125 
Q 46.625 64.703125 41.21875 64.703125 
Q 34.71875 64.703125 29.984375 62.71875 
Q 25.25 60.75 22.34375 57.515625 
Q 19.4375 54.296875 17.828125 50.4375 
Q 15.09375 43.796875 15.09375 36.03125 
Q 15.09375 26.46875 18.390625 20.015625 
Q 21.6875 13.578125 27.984375 10.453125 
Q 34.28125 7.328125 41.359375 7.328125 
Q 47.515625 7.328125 53.375 9.6875 
Q 59.234375 12.0625 62.25 14.75 
L 62.25 28.078125 
z
" id="ArialMT-71"/>
      <path d="M 5.46875 16.546875 
L 13.921875 17.328125 
Q 14.984375 11.375 18.015625 8.6875 
Q 21.046875 6 25.78125 6 
Q 29.828125 6 32.875 7.859375 
Q 35.9375 9.71875 37.890625 12.8125 
Q 39.84375 15.921875 41.15625 21.1875 
Q 42.484375 26.46875 42.484375 31.9375 
Q 42.484375 32.515625 42.4375 33.6875 
Q 39.796875 29.5 35.234375 26.875 
Q 30.671875 24.265625 25.34375 24.265625 
Q 16.453125 24.265625 10.296875 30.703125 
Q 4.15625 37.15625 4.15625 47.703125 
Q 4.15625 58.59375 10.578125 65.234375 
Q 17 71.875 26.65625 71.875 
Q 33.640625 71.875 39.421875 68.109375 
Q 45.21875 64.359375 48.21875 57.390625 
Q 51.21875 50.4375 51.21875 37.25 
Q 51.21875 23.53125 48.234375 15.40625 
Q 45.265625 7.28125 39.375 3.03125 
Q 33.5 -1.21875 25.59375 -1.21875 
Q 17.1875 -1.21875 11.859375 3.4375 
Q 6.546875 8.109375 5.46875 16.546875 
z
M 41.453125 48.140625 
Q 41.453125 55.71875 37.421875 60.15625 
Q 33.40625 64.59375 27.734375 64.59375 
Q 21.875 64.59375 17.53125 59.8125 
Q 13.1875 55.03125 13.1875 47.40625 
Q 13.1875 40.578125 17.3125 36.296875 
Q 21.4375 32.03125 27.484375 32.03125 
Q 33.59375 32.03125 37.515625 36.296875 
Q 41.453125 40.578125 41.453125 48.140625 
z
" id="ArialMT-57"/>
     </defs>
     <g style="fill:#262626;" transform="translate(358.289062 47.447813)scale(0.1 -0.1)">
      <use xlink:href="#ArialMT-65"/>
      <use x="66.589844" xlink:href="#ArialMT-84"/>
      <use x="127.673828" xlink:href="#ArialMT-49"/>
      <use x="183.289062" xlink:href="#ArialMT-71"/>
      <use x="261.072266" xlink:href="#ArialMT-49"/>
      <use x="316.6875" xlink:href="#ArialMT-50"/>
      <use x="372.302734" xlink:href="#ArialMT-48"/>
      <use x="427.917969" xlink:href="#ArialMT-57"/>
      <use x="483.533203" xlink:href="#ArialMT-48"/>
     </g>
    </g>
    <g id="patch_29">
     <path d="M 330.289062 61.593125 
L 350.289062 61.593125 
L 350.289062 54.593125 
L 330.289062 54.593125 
z
" style="fill:#ff7f0e;stroke:#ffffff;stroke-linejoin:miter;"/>
    </g>
    <g id="text_16">
     <!-- AT2G22170 -->
     <defs>
      <path d="M 4.734375 62.203125 
L 4.734375 70.65625 
L 51.078125 70.65625 
L 51.078125 63.8125 
Q 44.234375 56.546875 37.515625 44.484375 
Q 30.8125 32.421875 27.15625 19.671875 
Q 24.515625 10.6875 23.78125 0 
L 14.75 0 
Q 14.890625 8.453125 18.0625 20.40625 
Q 21.234375 32.375 27.171875 43.484375 
Q 33.109375 54.59375 39.796875 62.203125 
z
" id="ArialMT-55"/>
     </defs>
     <g style="fill:#262626;" transform="translate(358.289062 61.593125)scale(0.1 -0.1)">
      <use xlink:href="#ArialMT-65"/>
      <use x="66.589844" xlink:href="#ArialMT-84"/>
      <use x="127.673828" xlink:href="#ArialMT-50"/>
      <use x="183.289062" xlink:href="#ArialMT-71"/>
      <use x="261.072266" xlink:href="#ArialMT-50"/>
      <use x="316.6875" xlink:href="#ArialMT-50"/>
      <use x="372.302734" xlink:href="#ArialMT-49"/>
      <use x="427.917969" xlink:href="#ArialMT-55"/>
      <use x="483.533203" xlink:href="#ArialMT-48"/>
     </g>
    </g>
    <g id="patch_30">
     <path d="M 330.289062 75.738438 
L 350.289062 75.738438 
L 350.289062 68.738438 
L 330.289062 68.738438 
z
" style="fill:#2ca02c;stroke:#ffffff;stroke-linejoin:miter;"/>
    </g>
    <g id="text_17">
     <!-- AT3G15950 -->
     <g style="fill:#262626;" transform="translate(358.289062 75.738438)scale(0.1 -0.1)">
      <use xlink:href="#ArialMT-65"/>
      <use x="66.589844" xlink:href="#ArialMT-84"/>
      <use x="127.673828" xlink:href="#ArialMT-51"/>
      <use x="183.289062" xlink:href="#ArialMT-71"/>
      <use x="261.072266" xlink:href="#ArialMT-49"/>
      <use x="316.6875" xlink:href="#ArialMT-53"/>
      <use x="372.302734" xlink:href="#ArialMT-57"/>
      <use x="427.917969" xlink:href="#ArialMT-53"/>
      <use x="483.533203" xlink:href="#ArialMT-48"/>
     </g>
    </g>
    <g id="patch_31">
     <path d="M 330.289062 89.88375 
L 350.289062 89.88375 
L 350.289062 82.88375 
L 330.289062 82.88375 
z
" style="fill:#d62728;stroke:#ffffff;stroke-linejoin:miter;"/>
    </g>
    <g id="text_18">
     <!-- AT4G23600 -->
     <g style="fill:#262626;" transform="translate(358.289062 89.88375)scale(0.1 -0.1)">
      <use xlink:href="#ArialMT-65"/>
      <use x="66.589844" xlink:href="#ArialMT-84"/>
      <use x="127.673828" xlink:href="#ArialMT-52"/>
      <use x="183.289062" xlink:href="#ArialMT-71"/>
      <use x="261.072266" xlink:href="#ArialMT-50"/>
      <use x="316.6875" xlink:href="#ArialMT-51"/>
      <use x="372.302734" xlink:href="#ArialMT-54"/>
      <use x="427.917969" xlink:href="#ArialMT-48"/>
      <use x="483.533203" xlink:href="#ArialMT-48"/>
     </g>
    </g>
    <g id="patch_32">
     <path d="M 330.289062 104.029063 
L 350.289062 104.029063 
L 350.289062 97.029063 
L 330.289062 97.029063 
z
" style="fill:#9467bd;stroke:#ffffff;stroke-linejoin:miter;"/>
    </g>
    <g id="text_19">
     <!-- AT5G41900 -->
     <g style="fill:#262626;" transform="translate(358.289062 104.029063)scale(0.1 -0.1)">
      <use xlink:href="#ArialMT-65"/>
      <use x="66.589844" xlink:href="#ArialMT-84"/>
      <use x="127.673828" xlink:href="#ArialMT-53"/>
      <use x="183.289062" xlink:href="#ArialMT-71"/>
      <use x="261.072266" xlink:href="#ArialMT-52"/>
      <use x="316.6875" xlink:href="#ArialMT-49"/>
      <use x="372.302734" xlink:href="#ArialMT-57"/>
      <use x="427.917969" xlink:href="#ArialMT-48"/>
      <use x="483.533203" xlink:href="#ArialMT-48"/>
     </g>
    </g>
   </g>
  </g>
 </g>
 <defs>
  <clipPath id="p12a69cdbe2">
   <rect height="201.79" width="358.27" x="62.93" y="31.29"/>
  </clipPath>
 </defs>
</svg>
